Coordinates
version=1
nRows=11
nColumns=40
inDegrees=yes

Units are S.I. units (second, meters, Newtons, ...)
If the header above contains a line with 'inDegrees', this indicates whether rotational values are in degrees (yes) or radians (no).

endheader
time	pelvis_tilt	pelvis_list	pelvis_rotation	pelvis_tx	pelvis_ty	pelvis_tz	hip_flexion_r	hip_adduction_r	hip_rotation_r	knee_angle_r	knee_angle_r_beta	ankle_angle_r	subtalar_angle_r	mtp_angle_r	hip_flexion_l	hip_adduction_l	hip_rotation_l	knee_angle_l	knee_angle_l_beta	ankle_angle_l	subtalar_angle_l	mtp_angle_l	lumbar_extension	lumbar_bending	lumbar_rotation	arm_flex_r	arm_add_r	arm_rot_r	elbow_flex_r	pro_sup_r	wrist_flex_r	wrist_dev_r	arm_flex_l	arm_add_l	arm_rot_l	elbow_flex_l	pro_sup_l	wrist_flex_l	wrist_dev_l
      0.14000000	     -3.32031588	     -3.82904323	      2.93954787	     -0.98950234	      0.84285918	      0.21814872	     29.07344442	      1.27343441	    -12.40271414	     24.75314783	      0.43202393	     -6.31398366	      0.00000000	      0.00000000	     -8.21971913	     -9.94040359	    -11.45572634	     41.33106445	      0.72136316	    -20.06508191	      0.00000000	      0.00000000	     -3.11186711	      6.91653505	     -3.94225344	    -12.33264107	     -4.06695301	      0.35937778	     28.82845275	     88.96855115	    -18.44244652	      0.71454661	      0.26984951	     -8.75269235	      7.11842568	     63.67691039	     89.42113708	    -17.16687537	      0.64743276
      0.15000000	     -2.80260918	     -3.96401674	      2.64892639	     -0.97484843	      0.84520241	      0.22050186	     27.77609888	      1.85657103	    -11.74401384	     25.27415080	      0.44111715	     -5.60160729	      0.00000000	      0.00000000	     -7.09402101	    -10.46146530	    -11.00434273	     44.42210039	      0.77531191	    -21.12325519	      0.00000000	      0.00000000	     -3.72398265	      6.91336925	     -3.12302014	    -11.98770513	     -4.15272913	      0.51635964	     28.65023298	     88.99171928	    -18.34913853	      0.77925843	     -0.22243480	     -8.47123153	      6.79275255	     62.70969502	     89.42394600	    -17.22142819	      0.75742049
      0.16000000	     -3.28313429	     -4.88025269	      2.89466526	     -0.96024018	      0.84598287	      0.22232588	     27.40498444	      2.91505634	    -12.04776162	     25.52798594	      0.44554741	     -4.61077593	      0.00000000	      0.00000000	     -4.32620211	    -11.85513060	     -9.74529385	     48.12803471	      0.83999267	    -21.08744821	      0.00000000	      0.00000000	     -2.97383061	      7.74244638	     -2.77897139	    -11.95547901	     -4.38646307	      0.76639398	     28.70287043	     88.97178889	    -18.18274028	      0.98488490	     -0.79076799	     -8.26506785	      7.02949925	     61.44322110	     89.41503992	    -17.22236805	      0.96313501
      0.17000000	     -3.21129177	     -5.14692918	      2.97787093	     -0.94634170	      0.84790055	      0.22414992	     26.38389229	      3.46762407	    -11.80988459	     25.67685657	      0.44814569	     -3.49504080	      0.00000000	      0.00000000	     -2.18688344	    -12.34447195	     -8.49155822	     51.35617922	      0.89633442	    -20.58920186	      0.00000000	      0.00000000	     -3.05679824	      7.86782391	     -2.32923078	    -11.58030309	     -4.53046230	      0.95086972	     28.73052246	     88.98573642	    -18.08264741	      1.09692777	     -1.24687011	     -8.12880083	      7.04478226	     60.22933764	     89.40948017	    -17.29533013	      1.07341961
      0.18000000	     -3.33213142	     -5.47980782	      3.29434797	     -0.93268628	      0.84970856	      0.22552487	     25.43496182	      3.95652126	    -12.03092701	     25.54003450	      0.44575769	     -2.49469630	      0.00000000	      0.00000000	      0.36729203	    -12.78581763	     -6.92102441	     54.49121853	      0.95105118	    -19.40506039	      0.00000000	      0.00000000	     -2.86345536	      8.05902439	     -2.08090292	    -11.20498849	     -4.69184055	      1.11095652	     28.76386398	     88.99351125	    -18.05692444	      1.20281503	     -1.64240640	     -7.93132196	      7.05265858	     58.72855306	     89.40166857	    -17.47071910	      1.22215045
      0.19000000	     -3.46836335	     -5.70482155	      3.66470218	     -0.91929875	      0.85167846	      0.22673938	     24.40618150	      4.32979067	    -12.23561039	     25.22082340	      0.44018641	     -1.59925033	      0.00000000	      0.00000000	      3.02970617	    -12.98552193	     -5.28905371	     57.33715136	      1.00072207	    -18.03841573	      0.00000000	      0.00000000	     -2.65114261	      8.13195692	     -1.94577153	    -10.74983912	     -4.85428218	      1.22442837	     28.85194877	     89.01011849	    -18.15829934	      1.24784362	     -2.04479964	     -7.78412979	      7.07288302	     57.14579106	     89.39498502	    -17.83107796	      1.30636165
      0.20000000	     -3.41566988	     -5.82976902	      4.03543267	     -0.90594515	      0.85404962	      0.22785531	     23.06809937	      4.63974242	    -12.48100676	     24.72308507	      0.43149924	     -0.63879755	      0.00000000	      0.00000000	      5.41424600	    -12.99652825	     -3.80701988	     59.75857974	      1.04298397	    -16.01903341	      0.00000000	      0.00000000	     -2.67829020	      8.11017892	     -1.80296135	    -10.22837337	     -5.04869503	      1.44363928	     29.01419137	     89.01765692	    -18.30361124	      1.21666749	     -2.41177083	     -7.68613205	      7.13767864	     55.50831358	     89.38740233	    -18.16142005	      1.45563968
      0.21000000	     -3.37627498	     -5.83345464	      4.36534277	     -0.89266813	      0.85651492	      0.22889788	     21.65143327	      4.85707095	    -12.66925501	     24.03476146	      0.41948572	      0.14969731	      0.00000000	      0.00000000	      7.74593797	    -12.78837103	     -2.49131172	     61.73505749	      1.07748002	    -13.97953550	      0.00000000	      0.00000000	     -2.69484690	      7.93495861	     -1.62478052	     -9.68045196	     -5.22577505	      1.59410772	     29.23097289	     89.02967178	    -18.53414470	      1.15470283	     -2.79000957	     -7.59690631	      7.15704584	     53.85779421	     89.37817597	    -18.51345049	      1.63848090
      0.22000000	     -3.28667758	     -5.63768884	      4.54011608	     -0.87931744	      0.85923780	      0.23011674	     20.08044712	      4.95698735	    -12.60977295	     23.18989404	      0.40474000	      0.84340833	      0.00000000	      0.00000000	      9.83305966	    -12.35900911	     -1.55117988	     63.15205939	      1.10221137	    -11.84503517	      0.00000000	      0.00000000	     -2.78825454	      7.55151337	     -1.40555111	     -9.07214721	     -5.40453626	      1.72341599	     29.53736945	     89.04641098	    -18.70020705	      1.08911998	     -3.23425514	     -7.54012775	      7.05513525	     52.14510777	     89.37200329	    -18.75267470	      1.89335466
      0.23000000	     -3.33880066	     -5.53435803	      4.85538974	     -0.86598257	      0.86163301	      0.23102148	     18.64263139	      5.05180273	    -12.97167561	     22.27980258	      0.38885591	      1.31043840	      0.00000000	      0.00000000	     12.08073681	    -11.97007722	     -0.59869196	     64.22856170	      1.12099988	     -9.54009033	      0.00000000	      0.00000000	     -2.65696724	      7.26103837	     -1.29889223	     -8.52380526	     -5.59423542	      1.79079045	     29.92722651	     89.05787240	    -19.01330236	      1.01601891	     -3.67603456	     -7.52133659	      7.14046500	     50.38545793	     89.36695592	    -19.06800318	      2.21198783
      0.24000000	     -3.49562013	     -5.46182579	      5.16418932	     -0.85282359	      0.86381184	      0.23193743	     17.32054966	      5.18337132	    -13.33977832	     21.31084095	      0.37194434	      1.58011216	      0.00000000	      0.00000000	     14.41453295	    -11.56346603	      0.27762745	     64.90278592	      1.13276731	     -7.58759607	      0.00000000	      0.00000000	     -2.43883952	      6.99772744	     -1.11584606	     -8.05014035	     -5.77843305	      1.71447876	     30.49592894	     89.06885172	    -19.61236106	      0.89216609	     -4.03592880	     -7.53676543	      7.40361336	     48.54549943	     89.35397943	    -19.58820131	      2.58359082
